{
  "accessors": [
    {
      "bufferView": 2,
      "componentType": 5126,
      "count": 2336,
      "max": [
        0.17948366701602936,
        0.3100000023841858,
        0.41354769468307495
      ],
      "min": [
        -0.1955164670944214,
        -0.3099999725818634,
        -0.001452302560210228
      ],
      "type": "VEC3"
    },
    {
      "bufferView": 2,
      "byteOffset": 28032,
      "componentType": 5126,
      "count": 2336,
      "max": [
        1.0,
        1.0,
        1.0
      ],
      "min": [
        -0.9999984502792358,
        -1.0,
        -1.0
      ],
      "type": "VEC3"
    },
    {
      "bufferView": 3,
      "componentType": 5126,
      "count": 2336,
      "max": [
        1.0,
        1.0,
        1.0,
        1.0
      ],
      "min": [
        -1.0,
        -1.0,
        -1.0,
        -1.0
      ],
      "type": "VEC4"
    },
    {
      "bufferView": 1,
      "componentType": 5126,
      "count": 2336,
      "max": [
        0.998292863368988,
        0.9287697076797485
      ],
      "min": [
        0.001001706114038825,
        0.00024019376724027097
      ],
      "type": "VEC2"
    },
    {
      "bufferView": 0,
      "componentType": 5125,
      "count": 8031,
      "type": "SCALAR"
    },
    {
      "bufferView": 2,
      "byteOffset": 56064,
      "componentType": 5126,
      "count": 2381,
      "max": [
        0.010908774100244045,
        0.08003517985343933,
        0.307497501373291
      ],
      "min": [
        -0.007091611623764038,
        -0.08003517985343933,
        -0.004665262997150421
      ],
      "type": "VEC3"
    },
    {
      "bufferView": 2,
      "byteOffset": 84636,
      "componentType": 5126,
      "count": 2381,
      "max": [
        0.9999948143959045,
        1.0,
        1.0
      ],
      "min": [
        -0.9999924898147583,
        -1.0,
        -1.0
      ],
      "type": "VEC3"
    },
    {
      "bufferView": 3,
      "byteOffset": 37376,
      "componentType": 5126,
      "count": 2381,
      "max": [
        0.9999104142189026,
        0.9998188614845276,
        0.999992311000824,
        1.0
      ],
      "min": [
        -0.9999104142189026,
        -0.9999731183052063,
        -0.9999343752861023,
        -1.0
      ],
      "type": "VEC4"
    },
    {
      "bufferView": 1,
      "byteOffset": 18688,
      "componentType": 5126,
      "count": 2381,
      "max": [
        0.9884131550788879,
        0.9948813915252686
      ],
      "min": [
        0.005124674644321203,
        0.005116282496601343
      ],
      "type": "VEC2"
    },
    {
      "bufferView": 1,
      "byteOffset": 37736,
      "componentType": 5126,
      "count": 2381,
      "max": [
        0.9884131550788879,
        0.9948813915252686
      ],
      "min": [
        0.005124674644321203,
        0.005116282496601343
      ],
      "type": "VEC2"
    },
    {
      "bufferView": 1,
      "byteOffset": 56784,
      "componentType": 5126,
      "count": 2381,
      "max": [
        0.9884131550788879,
        0.9948813915252686
      ],
      "min": [
        0.005124674644321203,
        0.005116282496601343
      ],
      "type": "VEC2"
    },
    {
      "bufferView": 0,
      "byteOffset": 32124,
      "componentType": 5125,
      "count": 10248,
      "type": "SCALAR"
    },
    {
      "bufferView": 2,
      "byteOffset": 113208,
      "componentType": 5126,
      "count": 262,
      "max": [
        0.1794835478067398,
        0.28999990224838257,
        0.3935476839542389
      ],
      "min": [
        -0.17551648616790771,
        -0.28999993205070496,
        0.04591664671897888
      ],
      "type": "VEC3"
    },
    {
      "bufferView": 2,
      "byteOffset": 116352,
      "componentType": 5126,
      "count": 262,
      "max": [
        1.0,
        1.0,
        1.0
      ],
      "min": [
        -1.0,
        -1.0,
        -1.0
      ],
      "type": "VEC3"
    },
    {
      "bufferView": 3,
      "byteOffset": 75472,
      "componentType": 5126,
      "count": 262,
      "max": [
        1.0,
        1.0,
        1.0,
        1.0
      ],
      "min": [
        -1.0,
        -1.0,
        -1.0,
        -1.0
      ],
      "type": "VEC4"
    },
    {
      "bufferView": 1,
      "byteOffset": 75832,
      "componentType": 5126,
      "count": 262,
      "max": [
        0.995602011680603,
        0.9995847940444946
      ],
      "min": [
        0.001010808045975864,
        0.001003874815069139
      ],
      "type": "VEC2"
    },
    {
      "bufferView": 0,
      "byteOffset": 73116,
      "componentType": 5125,
      "count": 708,
      "type": "SCALAR"
    }
  ],
  "asset": {
    "extras": {
      "author": "GiyoP (https://sketchfab.com/GiyoP)",
      "license": "CC-BY-4.0 (http://creativecommons.org/licenses/by/4.0/)",
      "source": "https://sketchfab.com/3d-models/japanese-drawer-chest-8fa883cbdee34379a25384442da0ab62",
      "title": "Japanese Drawer Chest"
    },
    "generator": "Sketchfab-12.68.0",
    "version": "2.0"
  },
  "bufferViews": [
    {
      "buffer": 0,
      "byteLength": 75948,
      "name": "floatBufferViews",
      "target": 34963
    },
    {
      "buffer": 0,
      "byteLength": 77928,
      "byteOffset": 75948,
      "byteStride": 8,
      "name": "floatBufferViews",
      "target": 34962
    },
    {
      "buffer": 0,
      "byteLength": 119496,
      "byteOffset": 153876,
      "byteStride": 12,
      "name": "floatBufferViews",
      "target": 34962
    },
    {
      "buffer": 0,
      "byteLength": 79664,
      "byteOffset": 273372,
      "byteStride": 16,
      "name": "floatBufferViews",
      "target": 34962
    }
  ],
  "buffers": [
    {
      "byteLength": 353036,
      "uri": "scene.bin"
    }
  ],
  "images": [
    {
      "uri": "textures/DrawerChest_baseColor.png"
    },
    {
      "uri": "textures/DrawerChest_metallicRoughness.png"
    },
    {
      "uri": "textures/DrawerChest_normal.png"
    },
    {
      "uri": "textures/DrawerLock.001_baseColor.png"
    },
    {
      "uri": "textures/DrawerLock.001_metallicRoughness.png"
    },
    {
      "uri": "textures/DrawerLock.001_normal.png"
    }
  ],
  "materials": [
    {
      "doubleSided": true,
      "name": "DrawerChest",
      "normalTexture": {
        "index": 2
      },
      "occlusionTexture": {
        "index": 1
      },
      "pbrMetallicRoughness": {
        "baseColorTexture": {
          "index": 0
        },
        "metallicFactor": 0.0,
        "metallicRoughnessTexture": {
          "index": 1
        }
      }
    },
    {
      "doubleSided": true,
      "name": "DrawerLock.001",
      "normalTexture": {
        "index": 5
      },
      "pbrMetallicRoughness": {
        "baseColorTexture": {
          "index": 3
        },
        "metallicRoughnessTexture": {
          "index": 4
        }
      }
    }
  ],
  "meshes": [
    {
      "name": "DrawerChest_DrawerChest_0",
      "primitives": [
        {
          "attributes": {
            "NORMAL": 1,
            "POSITION": 0,
            "TANGENT": 2,
            "TEXCOORD_0": 3
          },
          "indices": 4,
          "material": 0,
          "mode": 4
        }
      ]
    },
    {
      "name": "DrawerLocks_DrawerLock.001_0",
      "primitives": [
        {
          "attributes": {
            "NORMAL": 6,
            "POSITION": 5,
            "TANGENT": 7,
            "TEXCOORD_0": 8,
            "TEXCOORD_1": 9,
            "TEXCOORD_2": 10
          },
          "indices": 11,
          "material": 1,
          "mode": 4
        }
      ]
    },
    {
      "name": "DrawerChest.001_DrawerChest_0",
      "primitives": [
        {
          "attributes": {
            "NORMAL": 13,
            "POSITION": 12,
            "TANGENT": 14,
            "TEXCOORD_0": 15
          },
          "indices": 16,
          "material": 0,
          "mode": 4
        }
      ]
    }
  ],
  "nodes": [
    {
      "children": [
        1
      ],
      "matrix": [
        4.743197441101074,
        0.0,
        0.0,
        0.0,
        0.0,
        1.0532014018907075e-15,
        -4.743197441101074,
        0.0,
        0.0,
        4.743197441101074,
        1.0532014018907075e-15,
        0.0,
        0.0,
        0.0,
        0.0,
        1.0
      ],
      "name": "Sketchfab_model"
    },
    {
      "children": [
        2
      ],
      "matrix": [
        1.0,
        0.0,
        0.0,
        0.0,
        0.0,
        0.0,
        1.0,
        0.0,
        0.0,
        -1.0,
        0.0,
        0.0,
        0.0,
        0.0,
        0.0,
        1.0
      ],
      "name": "57f9ac6bbc0a4a64a19ec0f0dd841a34.fbx"
    },
    {
      "children": [
        3,
        5,
        7
      ],
      "name": "RootNode"
    },
    {
      "children": [
        4
      ],
      "matrix": [
        100.0,
        0.0,
        0.0,
        0.0,
        0.0,
        -1.629206793918314e-05,
        -99.99999999999868,
        0.0,
        0.0,
        99.99999999999868,
        -1.629206793918314e-05,
        0.0,
        0.0,
        0.0,
        0.0,
        1.0
      ],
      "name": "DrawerChest"
    },
    {
      "mesh": 0,
      "name": "DrawerChest_DrawerChest_0"
    },
    {
      "children": [
        6
      ],
      "matrix": [
        100.0,
        0.0,
        0.0,
        0.0,
        0.0,
        -1.629206793918314e-05,
        -99.99999999999868,
        0.0,
        0.0,
        99.99999999999868,
        -1.629206793918314e-05,
        0.0,
        18.670652389526367,
        10.284987449645996,
        0.7528159022331238,
        1.0
      ],
      "name": "DrawerLocks"
    },
    {
      "mesh": 1,
      "name": "DrawerLocks_DrawerLock.001_0"
    },
    {
      "children": [
        8
      ],
      "matrix": [
        100.0,
        0.0,
        0.0,
        0.0,
        0.0,
        -1.629206793918314e-05,
        -99.99999999999868,
        0.0,
        0.0,
        99.99999999999868,
        -1.629206793918314e-05,
        0.0,
        0.0,
        0.0,
        0.0,
        1.0
      ],
      "name": "DrawerChest.001"
    },
    {
      "mesh": 2,
      "name": "DrawerChest.001_DrawerChest_0"
    }
  ],
  "samplers": [
    {
      "magFilter": 9729,
      "minFilter": 9987,
      "wrapS": 10497,
      "wrapT": 10497
    }
  ],
  "scene": 0,
  "scenes": [
    {
      "name": "Sketchfab_Scene",
      "nodes": [
        0
      ]
    }
  ],
  "textures": [
    {
      "sampler": 0,
      "source": 0
    },
    {
      "sampler": 0,
      "source": 1
    },
    {
      "sampler": 0,
      "source": 2
    },
    {
      "sampler": 0,
      "source": 3
    },
    {
      "sampler": 0,
      "source": 4
    },
    {
      "sampler": 0,
      "source": 5
    }
  ]
}
